<svg width="411" height="352" viewBox="0 0 411 352" fill="none" xmlns="http://www.w3.org/2000/svg">
<g clip-path="url(#clip0_1_2)">
<mask id="mask0_1_2" style="mask-type:luminance" maskUnits="userSpaceOnUse" x="0" y="0" width="411" height="352">
<path d="M411 0H0V352H411V0Z" fill="white"/>
</mask>
<g mask="url(#mask0_1_2)">
<g style="mix-blend-mode:color-dodge" opacity="0.85">
<path fill-rule="evenodd" clip-rule="evenodd" d="M209.656 6.58524C253.156 6.58524 293.027 22.0941 324.059 47.8815C320.904 48.3856 318.033 49.7342 315.679 51.686C312.904 48.6114 308.886 46.6782 304.417 46.6782C297.924 46.6782 292.384 50.7612 290.222 56.4958C289.492 56.3009 288.728 56.1865 287.936 56.1865C283.176 56.1865 279.306 59.9446 279.102 64.6554C277.199 63.4491 274.944 62.747 272.522 62.747C266.738 62.747 261.891 66.7402 260.579 72.1222C258.745 70.9623 256.574 70.2911 254.241 70.2911C249.472 70.2911 245.364 73.0997 243.468 77.1516C242.258 76.4959 240.873 76.1216 239.4 76.1216C235.5 76.1216 232.218 78.7446 231.203 82.3202C230.767 82.2275 230.312 82.178 229.848 82.178C226.204 82.178 223.247 85.1319 223.247 88.7787H360.296C378.311 116.716 388.766 149.985 388.766 185.702C388.766 240.688 363.986 289.887 324.984 322.742C323.994 316.315 322.385 309.952 319.976 303.815C321.306 312.39 321.689 319.457 321.433 325.653C319.939 326.847 318.426 328.022 316.895 329.17C315.416 327.802 314.151 326.94 313.235 326.506C312.781 324.416 312.224 322.343 311.547 320.302C311.816 322.359 312.004 324.31 312.122 326.176C311.85 326.172 311.692 326.275 311.667 326.476C311.392 328.573 310.838 333.648 308.19 333.15C305.543 332.652 306.369 330.889 304.274 327.521C302.641 324.901 298.629 326.027 293.235 324.465C293.151 317.048 294.101 308.437 296.634 297.654C292.458 305.603 290.002 314.041 288.762 322.584C288.616 322.504 288.471 322.42 288.326 322.334C286.733 321.39 284.793 320.54 282.647 319.887C284.011 316.404 285.551 312.807 287.286 309.098C283.967 312.538 281.233 315.835 279 319.012C271.124 317.62 261.743 319.111 256.209 327.521C254.845 329.593 253.481 331.496 252.157 333.228C251.281 321.267 252.952 307.997 260.27 291.857C247.504 305.817 242.942 322.962 242.333 339.816C242.292 339.547 242.249 339.278 242.206 339.012C242.475 337.066 242.521 335.582 242.521 335.582L241.633 335.811C241.296 334.085 240.913 332.365 240.477 330.654C240.18 328.202 239.787 325.749 239.283 323.296C239.744 319.98 240.452 316.386 241.46 312.427C240.291 314.685 239.276 316.967 238.364 319.259C236.836 313.311 234.618 307.419 231.531 301.697C235.394 317.595 234.751 328.502 232.301 338.205L229.403 338.95C229.239 338.393 229.063 337.84 228.883 337.289C228.961 337.877 229.029 338.458 229.094 339.031L224.645 340.175C223.99 333.209 224.519 325.121 227.256 314.381C222.641 323.283 220.123 332.535 218.969 341.635L218.901 341.654C216.625 342.241 214.679 342.464 212.913 342.489C212.768 337.589 213.324 332.012 214.92 325.282C213.185 328.514 211.809 331.811 210.738 335.142C210.939 331.987 211.317 328.61 211.904 324.96C213.692 320.5 215.78 315.848 218.208 310.991C216.569 312.649 215.063 314.276 213.68 315.866C213.773 315.461 213.866 315.056 213.961 314.644C213.584 315.362 213.225 316.083 212.876 316.806C205.093 326.027 201.53 334.134 200.58 341.582C200.042 341.61 199.488 341.657 198.91 341.728C198.845 341.483 198.777 341.236 198.709 340.992L198.789 341.743C198.57 341.771 198.347 341.805 198.124 341.839C199.9 336.834 202.043 331.585 204.617 326.086C200.008 330.865 196.522 335.368 193.955 339.649C193.58 335.77 193.54 331.79 193.967 327.617C192.801 332.018 192.293 337.178 192.244 342.727C192.092 343.021 191.947 343.314 191.805 343.608C191.616 343.683 191.424 343.757 191.232 343.834C191.087 342.603 190.886 341.409 190.62 340.268C190.666 341.57 190.654 342.847 190.583 344.1C189.952 344.366 189.296 344.657 188.619 344.976L188.037 345.248C188 344.824 187.969 344.397 187.944 343.967V345.294C187.329 345.579 186.729 345.854 186.144 346.117L186.481 345.43C186.147 345.755 185.822 346.08 185.507 346.401C185.099 346.584 184.696 346.76 184.301 346.93C184.61 344.969 185.012 342.906 185.532 340.713C184.285 343.033 183.227 345.39 182.33 347.765C176.277 350.277 172.132 351.452 169.642 352.003C169.552 351.044 169.475 350.079 169.416 349.105C172.587 343.785 171.996 337.803 171.996 337.803C171.346 338.61 170.471 339.358 169.407 340.057C169.951 330.766 172.286 320.562 177.604 308.842C175.952 310.648 174.436 312.51 173.05 314.416C173.465 311.542 173.793 308.09 173.793 308.09C173.793 308.09 175.182 308.161 175.751 308.303C176.32 308.446 179.914 306.772 180.484 304.994C181.053 303.215 181.944 275.699 179.948 257.62C177.956 239.537 177.245 236.336 177.245 236.336L179.379 234.913L179.522 233.348L185.145 231.143L185.43 230.147L186.392 230.323C186.392 230.323 186.676 232.494 187.78 232.315C188.885 232.135 187.78 228.541 187.78 228.541C187.78 228.541 223.838 215.266 225.474 213.271C227.111 211.279 225.261 209.284 223.767 209.355C222.273 209.426 186.107 224.981 186.107 224.981C186.107 224.981 185.751 222.559 184.932 222.559C184.112 222.559 184.468 225.086 184.468 225.086H182.476C182.476 225.086 182.76 220.174 181.978 219.284C181.195 218.393 180.484 217.363 180.91 216.472C181.337 215.581 186.249 212.664 186.249 212.664C186.249 212.664 187.388 214.836 188.065 214.765C188.739 214.693 189.63 214.124 189.203 213.342C188.776 212.559 187.567 210.635 187.567 210.635C187.567 210.635 223.872 189.101 224.299 188.318C224.726 187.536 222.592 185.185 221.664 185.185C220.736 185.185 185.145 206.682 185.145 206.682C185.145 206.682 183.082 203.159 182.333 202.875C181.585 202.59 181.158 203.339 181.195 203.799C181.229 204.263 182.584 206.753 182.584 206.753C182.584 206.753 178.668 209.033 177.421 209.067C176.175 209.104 175.856 207.394 175.856 206.862C175.856 206.33 176.747 205.117 177.174 203.871C177.601 202.624 179.948 192.055 179.664 186.642C179.379 181.232 179.806 179.166 180.091 178.099C180.375 177.032 181.3 175.893 180.518 173.187C179.735 170.48 174.681 161.226 171.12 156.67C167.56 152.113 164.359 151.473 164.359 151.473C164.359 151.473 163.61 144.854 164.037 144.285C164.464 143.716 165.246 143.929 166.029 144.693C166.811 145.46 168.742 143.768 168.779 143.199C168.816 142.63 169.632 142.54 170.078 142.184C170.523 141.829 170.95 140.564 171.448 140.245C171.946 139.923 173.085 141.136 174.081 140.032C175.077 138.927 174.402 135.154 174.792 134.977C175.185 134.798 176.073 135.296 176.181 134.94C176.289 134.585 176.75 134.229 177.177 134.442C177.604 134.656 194.867 146.366 195.152 145.513C195.436 144.659 173.607 110.4 173.607 110.4L134.88 104.065C134.88 104.065 137.157 107.127 140.395 109.759C143.634 112.392 149.044 117.269 149.044 117.269C149.044 117.269 147.621 119.227 147.513 120.403C147.408 121.578 147.015 123.749 146.266 124.495C145.518 125.243 145.341 125.457 145.731 126.026C146.124 126.595 146.798 126.917 146.764 127.662C146.73 128.411 145.555 128.658 146.124 129.441C146.693 130.223 149.257 130.545 149.861 129.512C150.467 128.479 150.572 120.4 150.785 119.868C150.999 119.333 152.279 118.621 152.279 118.621C152.279 118.621 151.568 122.215 151.71 126.023C151.853 129.831 153.17 134.458 153.17 134.458L152.174 132.964C152.174 132.964 151.463 134.956 151.212 136.292C150.962 137.625 150.127 137.947 150.127 137.947L149.805 133.926C149.805 133.926 148.648 135.599 147.794 139.017C146.941 142.435 146.656 143.892 143.949 144.356C141.243 144.82 132.238 144.712 129.782 146.92C127.326 149.125 127.255 153.15 128.038 155.534C128.82 157.919 129.745 160.517 128.394 163.01C127.042 165.5 124.193 175.398 122.343 183.369C120.493 191.34 120.422 197.963 120.422 197.963C120.422 197.963 124.694 203.444 127.113 208C129.535 212.556 137.222 221.526 137.757 222.095C138.292 222.664 138.682 223.128 138.539 223.66C138.397 224.195 134.66 227.647 133.234 230.635C132.687 231.786 132.028 234.362 131.298 237.524C126.541 242.609 113.193 251.798 109.361 255.888C105.089 260.444 96.4035 267.419 94.696 268.987C93.2422 270.32 74.157 289.386 68.4159 295.872C44.6754 265.485 30.5239 227.245 30.5239 185.695C30.5239 165.729 33.7904 146.527 39.8222 128.596H114.295C114.295 124.616 111.065 121.386 107.084 121.386C106.577 121.386 106.082 121.439 105.606 121.541C104.498 117.634 100.913 114.77 96.6509 114.77C95.0424 114.77 93.5298 115.178 92.209 115.896C90.1397 111.47 85.6514 108.401 80.4424 108.401C77.8967 108.401 75.5242 109.138 73.5198 110.403C72.0876 104.526 66.7889 100.161 60.4694 100.161C57.8247 100.161 55.3625 100.928 53.2839 102.246C53.2406 101.222 53.0364 100.242 52.6993 99.3262C67.6395 72.2367 89.3942 49.4311 115.646 33.2139C120.831 34.8935 124.58 39.7589 124.58 45.5029C124.58 38.367 130.364 32.586 137.5 32.586C133.033 32.586 129.096 30.3187 126.776 26.873C149.817 14.8253 175.807 7.63999 203.38 6.69349C201.923 8.68546 199.569 9.97839 196.912 9.97839C201.335 9.97839 204.92 13.5633 204.92 17.9865C204.92 13.5633 208.505 9.97839 212.928 9.97839C210.237 9.97839 207.855 8.65144 206.405 6.61617C207.481 6.59761 208.561 6.58833 209.64 6.58833L209.656 6.58524ZM248.299 54.3028C248.299 49.196 252.441 45.0544 257.548 45.0544C252.441 45.0544 248.299 40.9127 248.299 35.8059C248.299 40.9127 244.158 45.0544 239.051 45.0544C244.158 45.0544 248.299 49.196 248.299 54.3028ZM102.157 101.587C102.157 97.7333 105.281 94.6061 109.138 94.6061C105.284 94.6061 102.157 91.4821 102.157 87.6249C102.157 91.479 99.0327 94.6061 95.1754 94.6061C99.0296 94.6061 102.157 97.7302 102.157 101.587ZM299.814 123.354C299.814 117.634 304.451 113.001 310.167 113.001C304.448 113.001 299.814 108.364 299.814 102.648C299.814 108.367 295.18 113.001 289.461 113.001C295.18 113.001 299.814 117.634 299.814 123.354ZM161.024 343.649C162.509 335.217 165.274 326.94 169.858 319.259L169.812 319.266C168.921 319.374 163.867 320.797 163.867 320.797L163.653 316.132C163.653 316.132 161.946 326.952 160.947 330.725C160.489 332.464 158.986 334.156 157.386 335.681C157.08 337.274 156.827 338.802 156.622 340.274C156.919 341.725 157.179 343.175 157.402 344.626C158.658 344.32 159.867 343.995 161.021 343.649H161.024ZM187.954 337.883C188.167 334.137 188.773 329.989 189.893 325.275C189.188 326.59 188.544 327.914 187.954 329.247V337.883ZM136.847 347.883C137.358 347.83 137.868 347.778 138.379 347.725C138.985 345.374 139.699 343.027 140.534 340.688C140.476 340.744 140.42 340.794 140.374 340.834C139.876 341.261 138.737 341.545 138.737 341.545C138.737 341.545 137.314 344.109 136.888 346.101C136.776 346.621 136.782 347.243 136.847 347.883ZM123.67 342.841C124.546 341.378 125.529 339.89 126.627 338.369C126.262 336.76 125.325 336.077 124.57 335.105C123.574 333.825 123.574 329.374 123.11 329.34C122.646 329.306 122.114 329.696 120.797 330.515C119.479 331.335 113.571 335.996 113.571 335.996L114.567 328.662C114.567 328.662 112.324 328.662 108.232 331.796C107.895 332.052 107.548 332.328 107.196 332.612C112.485 336.309 117.985 339.723 123.67 342.841ZM101.025 328.099C101.9 325.492 102.927 322.751 103.96 319.977C106.88 312.145 110.082 300.258 114.78 286.448C119.479 272.637 125.245 261.177 127.45 253.701C127.62 253.128 127.787 252.522 127.957 251.897C126.074 253.763 123.509 256.172 122.832 256.172C121.728 256.172 121.267 254.712 121.267 254.712C121.267 254.712 104.109 269.343 93.8577 278.879C85.6545 286.512 76.084 296.426 71.8587 300.116C80.4919 310.503 90.282 319.89 101.022 328.096L101.025 328.099Z" fill="#9D1DCF"/>
<path fill-rule="evenodd" clip-rule="evenodd" d="M209.656 34.8069C222.721 34.8069 235.401 36.471 247.492 39.595C246.044 42.8149 242.812 45.0544 239.054 45.0544C244.161 45.0544 248.302 49.196 248.302 54.3028C248.302 49.196 252.444 45.0544 257.551 45.0544C253.988 45.0544 250.895 43.0376 249.351 40.0837C262.797 43.7429 275.498 49.2146 287.175 56.2205C282.773 56.5979 279.3 60.2014 279.108 64.6554C277.206 63.4491 274.951 62.747 272.529 62.747C266.744 62.747 261.897 66.7402 260.586 72.1222C258.751 70.9623 256.58 70.2911 254.248 70.2911C249.478 70.2911 245.37 73.0997 243.474 77.1516C242.264 76.4959 240.879 76.1216 239.406 76.1216C235.506 76.1216 232.224 78.7446 231.209 82.3203C230.773 82.2275 230.318 82.178 229.854 82.178C226.211 82.178 223.254 85.1319 223.254 88.7787H325.296C347.295 114.996 360.549 148.798 360.549 185.702C360.549 237.719 334.22 283.577 294.169 310.704C294.716 306.717 295.524 302.399 296.637 297.657C294.039 302.606 292.106 307.744 290.717 312.977C288.434 314.434 286.108 315.829 283.745 317.162C284.824 314.536 286.003 311.848 287.289 309.098C283.97 312.541 281.233 315.838 279.003 319.012C271.127 317.62 261.746 319.108 256.212 327.521C255.708 328.285 255.207 329.027 254.705 329.748C253.812 330.026 252.911 330.299 252.011 330.562C251.563 319.296 253.496 306.806 260.276 291.857C249.246 303.921 244.34 318.356 242.818 332.931C242.252 333.058 241.686 333.181 241.117 333.302C240.919 332.417 240.709 331.533 240.483 330.651C240.186 328.198 239.793 325.746 239.289 323.293C239.75 319.977 240.458 316.383 241.466 312.424C240.297 314.682 239.283 316.964 238.37 319.256C236.842 313.308 234.624 307.416 231.537 301.693C234.952 315.755 234.844 325.91 233.081 334.777C230.216 335.223 227.324 335.591 224.41 335.872C224.296 329.884 225.069 322.98 227.262 314.372C223.554 321.523 221.2 328.901 219.82 336.247C217.587 336.395 215.338 336.494 213.08 336.547C213.352 333.154 213.943 329.436 214.93 325.275C213.194 328.508 211.818 331.805 210.748 335.136C210.949 331.981 211.326 328.604 211.914 324.954C213.702 320.493 215.79 315.841 218.218 310.985C216.578 312.643 215.072 314.267 213.689 315.86C213.782 315.455 213.875 315.05 213.971 314.638C213.593 315.356 213.231 316.076 212.882 316.803C206.872 323.924 203.38 330.379 201.663 336.38C201.177 336.355 200.692 336.327 200.209 336.296C201.517 332.993 202.984 329.59 204.623 326.083C201.301 329.528 198.563 332.829 196.33 336.005C195.452 335.928 194.576 335.845 193.701 335.752C193.608 333.107 193.685 330.401 193.97 327.614C193.32 330.073 192.875 332.767 192.6 335.634C191.118 335.467 189.646 335.279 188.176 335.071C188.489 332.083 189.042 328.842 189.887 325.279C189.182 326.593 188.538 327.917 187.947 329.25V335.037C181.984 334.177 176.131 332.971 170.415 331.434C171.624 324.508 173.883 317.045 177.604 308.842C175.952 310.648 174.436 312.51 173.05 314.415C173.465 311.542 173.793 308.09 173.793 308.09C173.793 308.09 175.182 308.161 175.751 308.303C176.32 308.446 179.914 306.772 180.483 304.994C181.053 303.215 181.944 275.699 179.948 257.62C177.956 239.537 177.245 236.336 177.245 236.336L179.379 234.913L179.522 233.348L185.145 231.143L185.43 230.147L186.392 230.323C186.392 230.323 186.676 232.494 187.78 232.315C188.885 232.135 187.78 228.541 187.78 228.541C187.78 228.541 223.838 215.266 225.474 213.271C227.111 211.279 225.261 209.284 223.767 209.355C222.273 209.426 186.107 224.981 186.107 224.981C186.107 224.981 185.751 222.559 184.932 222.559C184.112 222.559 184.468 225.086 184.468 225.086H182.476C182.476 225.086 182.76 220.174 181.978 219.284C181.195 218.393 180.483 217.363 180.91 216.472C181.337 215.581 186.249 212.664 186.249 212.664C186.249 212.664 187.388 214.836 188.065 214.765C188.739 214.693 189.63 214.124 189.203 213.342C188.776 212.559 187.567 210.635 187.567 210.635C187.567 210.635 223.872 189.101 224.299 188.318C224.726 187.536 222.592 185.185 221.664 185.185C220.736 185.185 185.145 206.682 185.145 206.682C185.145 206.682 183.082 203.159 182.333 202.875C181.585 202.59 181.158 203.339 181.195 203.799C181.229 204.263 182.584 206.753 182.584 206.753C182.584 206.753 178.668 209.033 177.421 209.067C176.175 209.104 175.856 207.394 175.856 206.862C175.856 206.33 176.747 205.117 177.174 203.871C177.601 202.624 179.948 192.055 179.664 186.642C179.379 181.232 179.806 179.166 180.091 178.099C180.375 177.032 181.3 175.893 180.518 173.187C179.735 170.48 174.681 161.226 171.12 156.67C167.56 152.113 164.359 151.473 164.359 151.473C164.359 151.473 163.61 144.854 164.037 144.285C164.464 143.716 165.246 143.929 166.029 144.693C166.811 145.46 168.742 143.768 168.779 143.199C168.816 142.63 169.632 142.54 170.078 142.184C170.523 141.829 170.95 140.564 171.448 140.245C171.946 139.923 173.085 141.136 174.081 140.032C175.077 138.927 174.402 135.154 174.792 134.978C175.185 134.798 176.073 135.296 176.181 134.94C176.289 134.585 176.75 134.229 177.177 134.442C177.604 134.656 194.867 146.366 195.152 145.513C195.436 144.659 173.607 110.4 173.607 110.4L134.88 104.065C134.88 104.065 137.157 107.127 140.395 109.759C143.634 112.392 149.044 117.269 149.044 117.269C149.044 117.269 147.621 119.227 147.513 120.403C147.408 121.578 147.015 123.749 146.266 124.495C145.518 125.243 145.341 125.457 145.731 126.026C146.124 126.595 146.798 126.917 146.764 127.662C146.73 128.411 145.555 128.658 146.124 129.441C146.693 130.223 149.257 130.545 149.861 129.512C150.467 128.479 150.572 120.4 150.785 119.868C150.999 119.333 152.279 118.621 152.279 118.621C152.279 118.621 151.568 122.215 151.71 126.023C151.853 129.831 153.17 134.458 153.17 134.458L152.174 132.964C152.174 132.964 151.463 134.956 151.212 136.292C150.962 137.625 150.127 137.947 150.127 137.947L149.805 133.926C149.805 133.926 148.648 135.599 147.794 139.017C146.941 142.435 146.656 143.892 143.949 144.356C141.243 144.82 132.238 144.712 129.782 146.92C127.326 149.125 127.255 153.15 128.038 155.534C128.82 157.919 129.745 160.517 128.394 163.01C127.042 165.5 124.193 175.398 122.343 183.369C120.493 191.34 120.422 197.963 120.422 197.963C120.422 197.963 124.694 203.444 127.113 208C129.535 212.556 137.222 221.526 137.757 222.095C138.292 222.664 138.682 223.128 138.539 223.66C138.397 224.195 134.66 227.647 133.234 230.635C132.687 231.786 132.028 234.362 131.298 237.524C126.541 242.609 113.193 251.798 109.361 255.888C105.089 260.444 96.4034 267.419 94.696 268.987C94.198 269.442 91.643 271.969 88.2682 275.353C69.7182 250.286 58.7434 219.274 58.7434 185.695C58.7434 165.488 62.7244 146.209 69.9347 128.596H114.295C114.295 124.616 111.065 121.386 107.084 121.386C106.577 121.386 106.082 121.439 105.606 121.541C104.498 117.634 100.913 114.77 96.6509 114.77C95.0424 114.77 93.5298 115.178 92.209 115.896C90.1397 111.47 85.6514 108.401 80.4424 108.401C80.3032 108.401 80.164 108.401 80.0279 108.408C106.37 64.3276 154.556 34.8069 209.64 34.8069H209.656ZM102.157 101.587C102.157 97.7333 105.281 94.6061 109.138 94.6061C105.284 94.6061 102.157 91.4821 102.157 87.625C102.157 91.479 99.0327 94.6061 95.1754 94.6061C99.0296 94.6061 102.157 97.7302 102.157 101.587ZM299.814 123.354C299.814 117.634 304.451 113.001 310.167 113.001C304.448 113.001 299.814 108.364 299.814 102.648C299.814 108.367 295.18 113.001 289.461 113.001C295.18 113.001 299.814 117.634 299.814 123.354ZM164.782 329.798C166.146 326.191 167.823 322.668 169.858 319.259L169.812 319.266C168.921 319.374 163.867 320.797 163.867 320.797L163.653 316.132C163.653 316.132 162.401 324.057 161.417 328.709C162.534 329.086 163.656 329.448 164.785 329.801L164.782 329.798ZM110.555 299.479C111.829 295.399 113.224 291.028 114.78 286.448C119.479 272.637 125.245 261.177 127.45 253.701C127.62 253.128 127.787 252.522 127.957 251.897C126.074 253.763 123.509 256.172 122.832 256.172C121.728 256.172 121.267 254.712 121.267 254.712C121.267 254.712 104.109 269.343 93.8577 278.879C93.3133 279.383 92.7658 279.899 92.2121 280.422C97.7614 287.295 103.898 293.673 110.555 299.473V299.479Z" fill="#A61DDC"/>
<path fill-rule="evenodd" clip-rule="evenodd" d="M209.656 63.0285C224.516 63.0285 238.76 65.6731 251.94 70.5138C248.176 71.2531 245.052 73.7678 243.471 77.1517C242.261 76.4959 240.876 76.1216 239.403 76.1216C235.503 76.1216 232.221 78.7446 231.206 82.3203C230.77 82.2275 230.315 82.178 229.851 82.178C226.208 82.178 223.25 85.1319 223.25 88.7787H284.846C293.736 95.6856 301.648 103.79 308.348 112.846C303.495 111.986 299.811 107.749 299.811 102.651C299.811 108.37 295.177 113.004 289.458 113.004C295.177 113.004 299.811 117.637 299.811 123.357C299.811 118.185 303.603 113.901 308.559 113.128C323.499 133.45 332.327 158.544 332.327 185.698C332.327 236.5 301.447 280.088 257.431 298.715C258.266 296.485 259.209 294.202 260.273 291.854C257.839 294.514 255.708 297.292 253.839 300.159C247.368 302.659 240.631 304.626 233.687 306.005C233.022 304.558 232.304 303.119 231.534 301.69C231.912 303.249 232.249 304.759 232.543 306.225C225.128 307.626 217.475 308.365 209.653 308.365C199.612 308.365 189.856 307.15 180.518 304.873C181.087 302.26 181.913 275.383 179.955 257.617C177.963 239.534 177.251 236.333 177.251 236.333L179.385 234.91L179.528 233.345L185.151 231.139L185.436 230.143L186.398 230.32C186.398 230.32 186.682 232.491 187.787 232.312C188.891 232.132 187.787 228.538 187.787 228.538C187.787 228.538 223.844 215.262 225.481 213.267C227.117 211.275 225.267 209.28 223.773 209.352C222.279 209.423 186.113 224.978 186.113 224.978C186.113 224.978 185.757 222.556 184.938 222.556C184.118 222.556 184.474 225.083 184.474 225.083H182.482C182.482 225.083 182.766 220.171 181.984 219.28C181.201 218.39 180.49 217.36 180.917 216.469C181.343 215.578 186.255 212.661 186.255 212.661C186.255 212.661 187.394 214.833 188.071 214.761C188.746 214.69 189.636 214.121 189.21 213.339C188.783 212.556 187.573 210.632 187.573 210.632C187.573 210.632 223.878 189.098 224.305 188.315C224.732 187.533 222.598 185.182 221.67 185.182C220.742 185.182 185.151 206.679 185.151 206.679C185.151 206.679 183.088 203.156 182.339 202.871C181.591 202.587 181.164 203.335 181.201 203.796C181.235 204.26 182.59 206.75 182.59 206.75C182.59 206.75 178.674 209.03 177.427 209.064C176.181 209.101 175.862 207.391 175.862 206.859C175.862 206.326 176.753 205.114 177.18 203.867C177.607 202.621 179.955 192.052 179.67 186.639C179.385 181.229 179.812 179.163 180.097 178.096C180.381 177.028 181.306 175.89 180.524 173.184C179.741 170.477 174.687 161.223 171.127 156.666C167.566 152.11 164.365 151.47 164.365 151.47C164.365 151.47 163.616 144.851 164.043 144.282C164.47 143.712 165.252 143.926 166.035 144.69C166.818 145.457 168.748 143.765 168.785 143.196C168.822 142.627 169.639 142.537 170.084 142.181C170.53 141.826 170.956 140.561 171.454 140.242C171.952 139.92 173.091 141.133 174.087 140.029C175.083 138.924 174.408 135.151 174.798 134.974C175.191 134.795 176.079 135.293 176.187 134.937C176.295 134.582 176.756 134.226 177.183 134.439C177.61 134.653 194.873 146.363 195.158 145.51C195.442 144.656 173.613 110.396 173.613 110.396L134.886 104.062C134.886 104.062 137.163 107.124 140.401 109.756C143.64 112.388 149.05 117.266 149.05 117.266C149.05 117.266 147.627 119.224 147.519 120.4C147.414 121.575 147.021 123.746 146.272 124.492C145.524 125.24 145.348 125.454 145.737 126.023C146.13 126.592 146.804 126.914 146.77 127.659C146.736 128.408 145.561 128.655 146.13 129.438C146.699 130.22 149.264 130.542 149.867 129.509C150.473 128.476 150.578 120.397 150.792 119.865C151.005 119.329 152.286 118.618 152.286 118.618C152.286 118.618 151.574 122.212 151.717 126.02C151.859 129.827 153.177 134.455 153.177 134.455L152.181 132.961C152.181 132.961 151.469 134.953 151.219 136.289C150.968 137.622 150.133 137.944 150.133 137.944L149.811 133.923C149.811 133.923 148.654 135.596 147.8 139.014C146.947 142.432 146.662 143.889 143.956 144.353C141.249 144.817 132.245 144.708 129.789 146.917C127.333 149.122 127.261 153.146 128.044 155.531C128.827 157.916 129.752 160.514 128.4 163.007C127.048 165.497 124.199 175.395 122.349 183.366C120.5 191.337 120.429 197.96 120.429 197.96C120.429 197.96 124.7 203.441 127.119 207.997C129.541 212.553 137.228 221.523 137.763 222.092C138.298 222.661 138.688 223.125 138.546 223.657C138.403 224.192 134.667 227.644 133.241 230.632C132.693 231.783 132.034 234.359 131.304 237.521C126.547 242.606 113.2 251.795 109.367 255.884L109.175 256.085C95.1878 236.16 86.9691 211.885 86.9691 185.689C86.9691 165.07 92.0637 145.646 101.053 128.59H114.301C114.301 124.609 111.072 121.38 107.091 121.38C106.583 121.38 106.088 121.433 105.612 121.535C105.556 121.343 105.498 121.151 105.429 120.963C127.082 86.1774 165.655 63.0192 209.646 63.0192L209.656 63.0285ZM120.927 270.404C123.698 263.71 126.173 258.034 127.453 253.701C127.623 253.128 127.79 252.522 127.961 251.897C126.077 253.763 123.512 256.172 122.835 256.172C121.731 256.172 121.27 254.712 121.27 254.712C121.27 254.712 117.911 257.573 113.28 261.591C115.69 264.647 118.242 267.589 120.927 270.4V270.404Z" fill="#AC1FE3"/>
<path fill-rule="evenodd" clip-rule="evenodd" d="M209.656 91.247C261.82 91.247 304.107 133.533 304.107 185.695C304.107 237.858 261.82 280.144 209.656 280.144C199.689 280.144 190.085 278.594 181.065 275.733C180.901 269.479 180.564 263.113 179.958 257.613C177.966 239.531 177.254 236.33 177.254 236.33L179.389 234.907L179.531 233.342L185.154 231.136L185.439 230.14L186.401 230.317C186.401 230.317 186.685 232.488 187.79 232.309C188.894 232.129 187.79 228.535 187.79 228.535C187.79 228.535 223.847 215.259 225.484 213.264C227.12 211.272 225.27 209.277 223.776 209.348C222.282 209.42 186.116 224.975 186.116 224.975C186.116 224.975 185.761 222.553 184.941 222.553C184.121 222.553 184.477 225.08 184.477 225.08H182.485C182.485 225.08 182.769 220.168 181.987 219.277C181.204 218.387 180.493 217.357 180.92 216.466C181.347 215.575 186.259 212.658 186.259 212.658C186.259 212.658 187.397 214.829 188.074 214.758C188.749 214.687 189.639 214.118 189.213 213.335C188.786 212.553 187.576 210.629 187.576 210.629C187.576 210.629 223.881 189.095 224.308 188.312C224.735 187.53 222.601 185.179 221.673 185.179C220.745 185.179 185.154 206.676 185.154 206.676C185.154 206.676 183.091 203.153 182.343 202.868C181.594 202.584 181.167 203.332 181.204 203.793C181.238 204.257 182.593 206.747 182.593 206.747C182.593 206.747 178.677 209.027 177.431 209.061C176.184 209.098 175.865 207.387 175.865 206.855C175.865 206.323 176.756 205.111 177.183 203.864C177.61 202.618 179.958 192.049 179.673 186.636C179.389 181.226 179.815 179.16 180.1 178.092C180.385 177.025 181.309 175.887 180.527 173.181C179.744 170.474 174.69 161.22 171.13 156.663C167.569 152.107 164.368 151.467 164.368 151.467C164.368 151.467 163.619 144.848 164.046 144.279C164.473 143.709 165.256 143.923 166.038 144.687C166.821 145.454 168.751 143.762 168.788 143.193C168.825 142.624 169.642 142.534 170.087 142.178C170.533 141.823 170.959 140.557 171.458 140.239C171.956 139.917 173.094 141.13 174.09 140.025C175.086 138.921 174.412 135.148 174.801 134.971C175.194 134.792 176.082 135.29 176.19 134.934C176.298 134.578 176.759 134.223 177.186 134.436C177.613 134.65 194.876 146.36 195.161 145.506C195.445 144.653 173.617 110.393 173.617 110.393L156.517 107.597C171.655 97.2755 189.949 91.2408 209.653 91.2408L209.656 91.247ZM130.946 237.913C121.001 222.955 115.204 205.006 115.204 185.698C115.204 157.687 127.401 132.531 146.77 115.234C148.11 116.419 149.056 117.276 149.056 117.276C149.056 117.276 147.633 119.234 147.525 120.409C147.42 121.584 147.027 123.756 146.279 124.501C145.53 125.25 145.354 125.463 145.744 126.032C146.136 126.601 146.811 126.923 146.777 127.668C146.743 128.417 145.567 128.664 146.136 129.447C146.706 130.23 149.27 130.551 149.873 129.518C150.479 128.485 150.584 120.406 150.798 119.874C151.011 119.339 152.292 118.627 152.292 118.627C152.292 118.627 151.58 122.221 151.723 126.029C151.865 129.837 153.183 134.464 153.183 134.464L152.187 132.97C152.187 132.97 151.475 134.962 151.225 136.298C150.974 137.631 150.139 137.953 150.139 137.953L149.817 133.932C149.817 133.932 148.66 135.605 147.807 139.023C146.953 142.441 146.668 143.898 143.962 144.362C141.255 144.826 132.251 144.718 129.795 146.926C127.339 149.132 127.268 153.156 128.05 155.541C128.833 157.925 129.758 160.524 128.406 163.017C127.054 165.507 124.205 175.405 122.356 183.376C120.506 191.346 120.435 197.969 120.435 197.969C120.435 197.969 124.706 203.45 127.125 208.006C129.547 212.562 137.234 221.532 137.769 222.101C138.304 222.67 138.694 223.134 138.552 223.666C138.409 224.202 134.673 227.654 133.247 230.641C132.699 231.792 132.041 234.369 131.311 237.53C131.193 237.657 131.066 237.787 130.939 237.916L130.946 237.913Z" fill="#B51EF0"/>
<path fill-rule="evenodd" clip-rule="evenodd" d="M239.406 75.6453C240.879 75.6453 242.265 76.0196 243.474 76.6753C245.367 72.6233 249.478 69.8148 254.245 69.8148C256.577 69.8148 258.748 70.4891 260.583 71.6459C261.894 66.267 266.744 62.2707 272.526 62.2707C274.948 62.2707 277.203 62.9728 279.105 64.1791C279.309 59.4683 283.179 55.7102 287.939 55.7102C288.731 55.7102 289.495 55.8246 290.225 56.0195C292.387 50.2817 297.927 46.2019 304.42 46.2019C308.89 46.2019 312.908 48.1351 315.682 51.2097C318.711 48.695 322.602 47.1855 326.846 47.1855C336.348 47.1855 344.075 54.7606 344.332 64.2008C346.079 63.3842 348.028 62.9264 350.082 62.9264C357.599 62.9264 363.692 69.0198 363.692 76.5361C363.692 76.5578 363.692 76.5825 363.692 76.6042C363.692 76.6042 360.908 65.9113 350.085 65.9113C348.944 65.9113 347.487 66.2577 346.117 66.7031C346.426 67.0774 346.689 67.4887 346.918 67.9187C347.23 68.5033 347.419 69.1559 347.558 69.8179C347.607 70.1612 347.635 70.5107 347.623 70.8819L347.598 71.4294C347.567 71.6242 347.555 71.8036 347.505 72.0078L347.372 72.1006C347.041 71.6676 346.72 71.2283 346.379 70.8015C346.008 70.4056 345.668 69.9756 345.269 69.6044C344.87 69.2333 344.48 68.8497 344.038 68.5311C343.62 68.1785 343.15 67.9001 342.692 67.6063C341.746 67.065 340.734 66.6381 339.67 66.3876C338.612 66.1402 337.505 66.035 336.425 66.202L336.391 66.0412C337.375 64.7142 338.823 64.21 340.208 64.1018H340.236C341.576 64.0152 342.436 62.6635 341.978 61.4046C339.63 54.9554 334.084 50.1766 326.846 50.1766C323.728 50.1766 320.805 50.9993 318.271 52.4284C318.54 52.5119 318.81 52.6016 319.072 52.7067C319.799 52.9851 320.486 53.3903 321.148 53.8388C321.473 54.0801 321.788 54.3461 322.088 54.6461L322.531 55.1039C322.67 55.2802 322.815 55.4318 322.945 55.6266L322.905 55.7844C322.228 55.639 321.55 55.4782 320.87 55.3452C320.183 55.2493 319.502 55.107 318.81 55.0451C318.12 54.9802 317.43 54.8998 316.734 54.8936C316.041 54.8534 315.348 54.8812 314.652 54.8967C313.266 54.974 311.887 55.1534 310.538 55.4844C309.196 55.8215 307.866 56.2731 306.669 56.9783L306.579 56.8422C306.65 56.6072 306.752 56.4154 306.851 56.2081C306.959 56.0133 307.077 55.837 307.198 55.6483C307.439 55.2833 307.717 54.9616 308.011 54.6647C308.602 54.0646 309.273 53.5976 309.975 53.2016L310.006 53.1831C311.247 52.5119 311.135 50.6838 309.818 50.1797C308.138 49.5363 306.316 49.1868 304.414 49.1868C298.601 49.1868 293.556 52.4562 291.011 57.2567C290.5 58.2156 289.492 58.7723 288.406 58.7105C288.252 58.7012 288.094 58.6981 287.936 58.6981C284.116 58.6981 280.865 61.12 279.628 64.5132C279.173 65.7597 277.806 66.369 276.553 65.9329C275.291 65.4937 273.936 65.2555 272.523 65.2555C269.098 65.2555 266.002 66.6598 263.775 68.9209C262.751 69.9632 263.441 71.7201 264.901 71.7975H264.935C266.104 71.9367 267.267 72.0758 268.393 72.447C270.651 73.0687 272.776 74.2287 274.499 75.933L274.45 76.0876C272.386 75.4968 270.295 74.9679 268.149 74.7885C267.085 74.64 266.008 74.64 264.935 74.606C264.4 74.5936 263.861 74.6431 263.326 74.6555L262.522 74.6895L261.721 74.7761C261.189 74.8442 260.651 74.872 260.122 74.971L258.535 75.2432L256.964 75.6051C256.441 75.7319 255.93 75.8958 255.411 76.0381C253.357 76.666 251.352 77.4733 249.487 78.5436L249.401 78.4044C250.731 76.3072 252.661 74.872 254.724 73.7925C255.25 73.542 255.773 73.276 256.32 73.0718C256.373 73.0502 256.428 73.0347 256.481 73.0131C255.757 72.8739 255.009 72.7965 254.242 72.7965C250.267 72.7965 246.75 74.7483 244.594 77.7424C243.892 78.7168 242.645 79.1746 241.479 78.8807C240.814 78.7137 240.118 78.6271 239.4 78.6271C233.075 78.6271 231.203 81.8439 231.203 81.8439C232.218 78.2683 235.5 75.6453 239.4 75.6453H239.406Z" fill="#9D1DCF"/>
<path fill-rule="evenodd" clip-rule="evenodd" d="M96.6695 114.049C95.061 114.049 93.5484 114.458 92.2276 115.175C90.1582 110.749 85.6669 107.681 80.4579 107.681C77.9121 107.681 75.5396 108.417 73.5352 109.682C72.1031 103.805 66.8044 99.4407 60.4849 99.4407C57.8402 99.4407 55.378 100.208 53.2994 101.525C53.0179 94.9804 48.6812 90.3902 40.2026 93.7988C46.4943 93.8143 50.5773 96.629 52.724 101.884C53.2189 103.245 54.713 103.913 56.0833 103.437C57.4628 102.958 58.9445 102.698 60.4849 102.698C64.2277 102.698 67.6086 104.229 70.0399 106.7C71.1596 107.838 70.4049 109.756 68.8088 109.843H68.7717C67.4942 109.994 66.2229 110.149 64.9948 110.551C62.5295 111.229 60.2065 112.497 58.3228 114.359L58.3784 114.529C60.6334 113.882 62.9193 113.304 65.2609 113.109C66.427 112.948 67.5993 112.948 68.7748 112.911C69.3625 112.899 69.9471 112.951 70.5348 112.967L71.4133 113.004L72.2887 113.1C72.8702 113.174 73.4579 113.205 74.0363 113.313L75.7716 113.61L77.4884 114.006C78.0575 114.145 78.6174 114.325 79.1835 114.479C81.4261 115.166 83.6192 116.048 85.6545 117.217L85.7504 117.065C84.2966 114.773 82.187 113.205 79.9351 112.027C79.3629 111.751 78.7875 111.461 78.1936 111.238C78.1349 111.216 78.0761 111.198 78.0173 111.176C78.8092 111.024 79.6258 110.938 80.461 110.938C84.8008 110.938 88.6426 113.069 91.0027 116.341C91.7698 117.406 93.1308 117.907 94.4052 117.588C95.1321 117.406 95.8931 117.31 96.6757 117.31C103.586 117.31 105.631 120.823 105.631 120.823C104.523 116.917 100.938 114.053 96.6757 114.053L96.6695 114.049Z" fill="#9D1DCF"/>
<path fill-rule="evenodd" clip-rule="evenodd" d="M399.076 111.303C399.076 104.718 404.415 99.3757 411.003 99.3757C404.418 99.3757 399.076 94.037 399.076 87.4487C399.076 94.0339 393.737 99.3757 387.148 99.3757C393.734 99.3757 399.076 104.714 399.076 111.303Z" fill="#9D1DCF"/>
<path fill-rule="evenodd" clip-rule="evenodd" d="M327.381 32.1839C327.381 23.2974 334.585 16.0904 343.472 16.0904C334.585 16.0904 327.381 8.88653 327.381 0C327.381 8.88653 320.177 16.0904 311.287 16.0904C320.174 16.0904 327.381 23.2943 327.381 32.1839Z" fill="#9D1DCF"/>
<path fill-rule="evenodd" clip-rule="evenodd" d="M46.6954 78.7415C46.6954 69.855 53.8995 62.6511 62.7863 62.6511C53.8995 62.6511 46.6954 55.4472 46.6954 46.5576C46.6954 55.4441 39.4912 62.6511 30.6013 62.6511C39.4882 62.6511 46.6954 69.855 46.6954 78.7415Z" fill="#9D1DCF"/>
<path fill-rule="evenodd" clip-rule="evenodd" d="M11.6274 161.931C11.6274 155.51 16.8333 150.304 23.2549 150.304C16.8333 150.304 11.6274 145.098 11.6274 138.677C11.6274 145.098 6.42154 150.304 0 150.304C6.42154 150.304 11.6274 155.51 11.6274 161.931Z" fill="#9D1DCF"/>
</g>
</g>
</g>
<defs>
<clipPath id="clip0_1_2">
<rect width="411" height="352" fill="white"/>
</clipPath>
</defs>
</svg>
